<svg viewBox="0 0 300 200" role="img" xmlns="http://www.w3.org/2000/svg">
<title>Boys and Girls Club pattern 2</title>
<desc>Scattered hexagons of varying sizes on blue background.</desc>
<rect width="300" height="200" fill="#1A6FB5"/>
<g fill="none" stroke="#FFFFFF" stroke-width="1.5" opacity="0.55">
<polygon points="60,40 84,26 108,40 108,68 84,82 60,68"/>
<polygon points="200,55 218,44 236,55 236,77 218,88 200,77"/>
<polygon points="100,120 124,106 148,120 148,148 124,162 100,148"/>
<polygon points="220,130 240,118 260,130 260,154 240,166 220,154"/>
<polygon points="40,150 56,140 72,150 72,170 56,180 40,170"/>
</g>
<g fill="#FFFFFF" opacity="0.7">
<circle cx="160" cy="60" r="2.5"/>
<circle cx="270" cy="40" r="2"/>
<circle cx="180" cy="160" r="2.5"/>
<circle cx="80" cy="100" r="2"/>
</g>
<text x="282" y="190" text-anchor="end" fill="#0B3D6B" font-family="monospace" font-size="9" font-weight="700" letter-spacing="2" opacity="0.75">DEMO</text>
</svg>
